<?xml version="1.0" encoding="UTF-8" standalone="no"?>
<!-- Created with Inkscape (http://www.inkscape.org/) -->

<svg
   width="130mm"
   height="297mm"
   viewBox="0 0 130 297"
   version="1.1"
   id="svg1"
   sodipodi:docname="dango_traced.svg"
   xml:space="preserve"
   inkscape:version="1.4 (e7c3feb1, 2024-10-09)"
   xmlns:inkscape="http://www.inkscape.org/namespaces/inkscape"
   xmlns:sodipodi="http://sodipodi.sourceforge.net/DTD/sodipodi-0.dtd"
   xmlns="http://www.w3.org/2000/svg"
   xmlns:svg="http://www.w3.org/2000/svg"><sodipodi:namedview
     id="namedview1"
     pagecolor="#505050"
     bordercolor="#eeeeee"
     borderopacity="1"
     inkscape:showpageshadow="0"
     inkscape:pageopacity="0"
     inkscape:pagecheckerboard="0"
     inkscape:deskcolor="#505050"
     inkscape:document-units="mm"
     inkscape:zoom="0.58426479"
     inkscape:cx="523.73514"
     inkscape:cy="612.73588"
     inkscape:window-width="1896"
     inkscape:window-height="1141"
     inkscape:window-x="15"
     inkscape:window-y="58"
     inkscape:window-maximized="0"
     inkscape:current-layer="layer1" /><defs
     id="defs1" /><g
     inkscape:label="Layer 1"
     inkscape:groupmode="layer"
     id="layer1"
     transform="matrix(1.217579,0,0,1.217579,-170.70942,-42.418235)"><path
       style="display:inline;fill:#000000"
       d="m 208.4517,277.34886 c -1.07947,-1.12581 -4.85494,-6.34161 -5.51362,-7.61705 l -0.41839,-0.81014 -0.28118,-1.60527 c -0.24134,-1.37782 -1.92871,-14.99026 -2.31881,-18.70643 -0.0725,-0.6908 -0.20449,-1.45166 -0.29328,-1.69079 l -0.16145,-0.43477 h -3.24946 -3.24947 l -2.31078,-0.29912 c -18.25958,-2.36364 -32.16749,-14.75759 -35.00879,-31.19792 l -0.31726,-1.83571 7.5e-4,-3.57482 7.5e-4,-3.57482 0.43869,-2.51203 0.43868,-2.51203 0.6511,-2.14944 c 2.03046,-6.70308 5.7165,-12.50921 11.12261,-17.52001 l 1.77648,-1.64658 -1.19631,-0.6039 c -10.43511,-5.26762 -18.10348,-16.04679 -19.82153,-27.86245 l -0.29862,-2.05375 0.004,-2.97032 0.004,-2.97032 0.27248,-2.02895 c 0.61839,-4.60455 1.82729,-8.65873 3.71645,-12.46355 l 1.05539,-2.12556 1.83067,-2.75598 1.83067,-2.75597 1.18727,-1.30193 c 0.653,-0.71606 1.84001,-1.97321 2.6378,-2.79368 0.7978,-0.82047 1.41169,-1.53031 1.36422,-1.57743 -0.0475,-0.0471 -0.73848,-0.38363 -1.53557,-0.7478 -2.85648,-1.30508 -5.94782,-3.55807 -8.80051,-6.41387 l -1.94073,-1.94284 -1.25705,-1.68723 c -0.69137,-0.92798 -1.79763,-2.58351 -2.45835,-3.67897 l -1.20131,-1.991731 -0.98053,-2.311268 c -1.15093,-2.712915 -2.13567,-6.013373 -2.72965,-9.1487 l -0.42522,-2.244533 -0.007,-4.540983 -0.006,-4.540984 0.35389,-2.10192 c 1.1896,-7.065478 4.05289,-13.698127 8.43644,-19.542563 l 1.44756,-1.929983 2.32049,-2.389573 c 2.80191,-2.885324 4.36919,-4.172879 7.93387,-6.517821 l 2.71489,-1.785926 2.36075,-1.180648 c 5.41249,-2.70687 10.77237,-4.368235 16.5261,-5.122483 l 2.27275,-0.297932 h 3.74826 3.74826 l 2.2103,0.289744 c 9.10705,1.193831 17.39013,4.499786 24.32629,9.709154 l 1.98512,1.490914 2.3188,2.324325 c 2.52852,2.534542 4.11779,4.476521 6.14194,7.505035 l 1.31364,1.965444 1.23741,2.512033 c 2.81538,5.715427 4.18816,11.056605 4.46978,17.391 l 0.12028,2.705267 -0.22564,2.211374 c -0.32288,3.164307 -0.87937,5.847256 -1.77368,8.551278 l -0.77924,2.356094 -1.02906,2.136127 c -2.40552,4.993399 -6.23013,9.659169 -10.59871,12.929719 -0.83036,0.62166 -1.48252,1.15705 -1.44925,1.18977 0.0333,0.0327 0.84309,0.57339 1.7996,1.20148 8.93544,5.86749 14.92418,14.57171 17.22058,25.02895 l 0.5194,2.3652 0.0883,4.31983 0.0883,4.31983 -0.2295,1.86364 c -0.88543,7.19019 -3.77627,13.70036 -8.4642,19.0614 l -1.52075,1.7391 -1.96708,1.70143 c -2.27566,1.96833 -2.20699,1.81802 -1.13884,2.49279 3.41397,2.15669 7.4756,5.63693 9.96681,8.54015 l 1.67443,1.95136 1.33589,2.12557 c 3.16522,5.03627 4.73327,9.39673 5.61873,15.62466 l 0.27861,1.95957 0.004,3.02423 0.004,3.02422 -0.37678,2.19308 c -1.18968,6.92463 -4.18323,13.23981 -8.93622,18.85183 l -1.34371,1.58655 -1.86959,1.62557 c -1.02827,0.89407 -2.68767,2.20359 -3.68756,2.91006 l -1.81798,1.28448 -2.91624,1.44272 c -3.39498,1.67956 -5.24532,2.37994 -8.6843,3.28712 -1.37158,0.36181 -2.54177,0.70584 -2.60044,0.7645 -0.0587,0.0587 0.21929,2.47503 0.61766,5.36972 0.39838,2.89468 0.98647,7.21954 1.30688,9.61081 l 0.58255,4.34775 0.0322,2.22218 0.0322,2.22218 -0.94263,2.3188 c -0.51844,1.27534 -1.32684,3.08601 -1.79643,4.02371 l -0.85381,1.7049 -0.85544,0.85544 -0.85543,0.85544 h -1.00863 -1.00862 z m 2.58902,-8.01461 0.45364,-1.30433 0.0815,-2.60865 0.0815,-2.60865 -0.78724,-6.08685 c -0.43298,-3.34776 -1.04847,-8.34768 -1.36775,-11.11091 -0.31928,-2.76324 -0.67658,-5.38747 -0.794,-5.83162 l -0.21349,-0.80755 -0.44978,-0.42254 -0.44977,-0.42254 -0.83327,-0.0848 -0.83327,-0.0848 -0.67632,0.3487 -0.67632,0.3487 -0.35103,0.67631 -0.35102,0.67632 0.0941,1.7391 c 0.0766,1.41482 1.43646,13.80827 2.44894,22.31845 l 0.2184,1.83572 0.45149,1.31293 0.45149,1.31293 0.50982,0.66841 0.50983,0.66842 0.71425,0.37722 c 0.39284,0.20747 0.84936,0.38107 1.01448,0.38576 l 0.30023,0.009 z m -11.85619,-27.82856 0.2122,-0.14197 0.11976,-1.59225 0.11976,-1.59226 0.41455,-0.96365 0.41455,-0.96365 0.86203,-0.79459 0.86202,-0.79458 0.9035,-0.41392 0.90349,-0.41392 2.12557,-0.004 2.12557,-0.004 1.1594,0.54149 1.1594,0.5415 0.74132,0.71452 c 0.87944,0.84766 1.57472,2.13822 1.76431,3.27487 l 0.13699,0.82124 0.22455,-0.001 c 4.69346,-0.0283 14.52163,-5.34666 19.35021,-10.47105 l 1.69412,-1.79792 1.31727,-1.99262 c 2.39541,-3.62349 3.90849,-6.89033 4.82608,-10.41977 l 0.56443,-2.17104 0.11431,-1.88686 c 0.0629,-1.03778 0.14308,-2.23469 0.17825,-2.65981 0.54551,-6.59294 -2.82651,-16.03529 -7.87437,-22.04992 l -1.47747,-1.76043 -1.85025,-1.62115 c -1.01764,-0.89164 -2.70538,-2.19299 -3.75052,-2.89189 l -1.90026,-1.27074 -2.6591,-1.30607 -2.6591,-1.30607 -1.95497,-0.63985 c -2.22899,-0.72953 -5.56616,-1.50705 -8.46954,-1.97329 l -1.9877,-0.31919 -4.25113,-0.008 -4.25113,-0.008 -2.12557,0.33659 c -19.12258,3.02809 -32.10957,13.84182 -35.49087,29.55177 l -0.42626,1.98046 -0.004,4.15451 -0.004,4.15452 0.34146,1.83572 c 0.18781,1.00964 0.64047,2.73356 1.00592,3.83092 l 0.66445,1.99521 1.07711,2.10573 c 0.59241,1.15815 1.59114,2.82548 2.2194,3.70518 l 1.14228,1.59944 1.98392,2.03807 1.98392,2.03807 1.54587,1.16431 c 7.20697,5.42812 14.68456,7.86526 24.44401,7.96696 l 2.22219,0.0232 z m 6.64758,-24.91304 c -2.47099,0.0848 -5.05491,-0.67766 -6.13353,-1.77182 l -1.37749,-1.39733 -0.32546,-0.85221 -0.32546,-0.85221 0.12626,-0.673 0.12625,-0.67301 0.58796,-0.49473 0.58795,-0.49473 h 0.65945 0.65944 l 1.02706,0.9301 1.02705,0.93011 1.24548,0.36914 1.24549,0.36915 1.7391,0.005 1.7391,0.005 1.06278,-0.51079 c 1.03231,-0.49615 1.41071,-0.80202 2.59659,-2.09889 l 0.56763,-0.62076 0.87535,0.0987 0.87535,0.0987 0.53766,0.60174 0.53766,0.60175 -0.004,0.72157 -0.004,0.72158 -0.35189,0.77459 -0.35189,0.77459 -0.75032,0.65879 c -0.41268,0.36234 -1.26787,0.9933 -1.90042,1.40214 l -1.1501,0.74334 -1.242,0.38362 -1.242,0.38361 -1.09074,-0.0263 c -0.59991,-0.0145 -2.42373,-0.0628 -2.68942,-0.10751 z m -18.70427,-6.07441 -0.83019,-0.41094 -0.48166,-0.63149 c -0.26491,-0.34732 -0.65219,-1.11666 -0.86061,-1.70965 l -0.37894,-1.07816 v -1.22578 -1.22577 l 0.2948,-0.99271 0.29481,-0.99271 0.62583,-0.82977 0.62583,-0.82977 0.85941,-0.43477 0.85941,-0.43478 0.68368,0.004 0.68368,0.004 0.77293,0.35919 0.77294,0.35919 0.71509,0.74766 0.71509,0.74765 0.41211,0.93384 0.41211,0.93383 0.10058,1.38497 0.10059,1.38496 -0.42989,1.13638 -0.42988,1.13637 -0.70129,0.77719 -0.70128,0.77719 -0.6218,0.26031 -0.6218,0.26031 -1.02068,-1.5e-4 -1.02069,-1.5e-4 z m 34.25955,-2.03411 c -0.31883,-0.16737 -0.90041,-0.61106 -1.29238,-0.98599 l -0.71268,-0.68168 -0.42922,-0.98692 -0.42922,-0.98692 -0.0888,-1.46567 -0.0888,-1.46567 0.31798,-1.09381 0.31798,-1.09381 0.6212,-0.70751 0.62121,-0.70751 0.77459,-0.35189 0.77459,-0.35189 0.77293,-0.002 0.77294,-0.002 0.96757,0.45058 0.96757,0.45057 0.62542,0.71231 c 0.34398,0.39177 0.8136,1.07945 1.04361,1.52818 l 0.4182,0.81587 0.0875,1.35263 0.0875,1.35263 -0.20989,0.77591 c -0.11543,0.42675 -0.46379,1.17627 -0.77411,1.6656 l -0.56423,0.88969 -1.2105,0.6049 -1.21049,0.60489 -0.79038,-0.008 -0.79038,-0.008 z m -43.78686,-33.95846 3.29768,-1.6218 2.46712,-0.91005 2.46713,-0.91006 3.28496,-0.83335 c 1.80674,-0.45834 4.24148,-0.99288 5.41054,-1.18788 l 2.12556,-0.35454 5.60377,0.002 5.60377,0.002 1.64248,0.24855 c 0.90337,0.13671 2.81638,0.46856 4.25114,0.73744 l 2.60865,0.48887 2.07035,0.66907 2.07036,0.66907 0.82814,-0.42111 c 5.52165,-2.80777 10.71698,-9.24119 13.01394,-16.11523 l 0.64568,-1.93234 0.43546,-2.3188 0.43546,-2.3188 0.002,-3.96128 0.002,-3.96128 -0.43676,-2.00569 c -0.56637,-2.60086 -1.3962,-5.20203 -2.50407,-7.84921 l -0.88957,-2.12557 -1.68925,-2.51203 c -4.0232,-5.98278 -8.2747,-9.57546 -15.36776,-12.98634 l -2.55353,-1.22793 -2.34001,-0.76839 -2.34001,-0.76839 -2.35758,-0.46407 c -1.29667,-0.25523 -3.18365,-0.58039 -4.19329,-0.72258 l -1.83572,-0.25852 -4.54098,0.004 -4.54099,0.004 -2.22218,0.34479 c -9.40416,1.45913 -17.74945,5.60298 -24.3073,12.06974 l -1.90413,1.87769 -1.43694,1.93112 c -4.36183,5.86195 -6.36453,11.36964 -6.94063,19.08775 l -0.19886,2.66413 0.20378,2.16094 c 0.37554,3.98222 1.22906,7.04531 2.98556,10.71449 l 1.03658,2.16533 1.41648,2.0845 1.41648,2.0845 2.02895,2.10432 c 3.53225,3.66348 8.86888,7.26191 11.91605,8.03488 0.0177,0.004 1.51615,-0.72165 3.32987,-1.61364 z m 20.94958,-21.55736 c -4.58447,-0.71744 -7.59697,-2.78847 -7.59697,-5.22277 v -0.58874 l 0.62801,-0.674 0.62801,-0.674 0.61647,-0.11794 0.61648,-0.11795 1.02601,0.96159 1.026,0.96158 0.96617,0.30709 c 0.53139,0.1689 1.49326,0.39904 2.13747,0.51142 l 1.17131,0.20432 0.96076,-0.1822 c 0.52842,-0.10021 1.47957,-0.37444 2.11366,-0.60938 l 1.1529,-0.42718 0.86955,-0.91763 c 0.97955,-1.03371 1.49097,-1.34561 2.20643,-1.34561 h 0.49274 l 0.60758,0.54287 0.60757,0.54286 0.0955,0.99388 0.0955,0.99387 -0.48955,0.83037 c -0.6238,1.05806 -1.30602,1.69863 -2.70115,2.5362 l -1.11433,0.66899 -1.49432,0.40125 c -0.82187,0.22069 -1.97257,0.441 -2.5571,0.48958 l -1.06278,0.0883 z m -17.45312,-5.40668 c -0.26638,-0.081 -0.76809,-0.29406 -1.1149,-0.47341 l -0.63057,-0.32608 -0.58095,-0.80198 -0.58095,-0.80198 -0.30703,-1.05612 -0.30702,-1.05612 0.0855,-1.66147 0.0855,-1.66148 0.44421,-1.01588 0.4442,-1.01588 0.64938,-0.57016 0.64938,-0.57017 0.76203,-0.20519 0.76204,-0.20519 0.90271,0.2023 c 1.26664,0.28386 1.88147,0.64175 2.65506,1.54552 l 0.67119,0.78413 0.35828,1.10496 0.35829,1.10496 0.004,1.3567 0.004,1.3567 -0.62932,1.27832 -0.62932,1.27833 -0.70588,0.5384 c -1.18398,0.90306 -2.29518,1.19185 -3.35065,0.87079 z m 33.46936,-2.65451 -0.63758,-0.31422 -0.67141,-0.78439 -0.67141,-0.78439 -0.3818,-1.23614 -0.38181,-1.23615 v -1.00735 -1.00736 l 0.29481,-0.99271 0.2948,-0.99271 0.62305,-0.81276 0.62306,-0.81275 0.70557,-0.36423 c 0.38807,-0.20033 0.99989,-0.41199 1.35962,-0.47037 l 0.65404,-0.10613 0.86257,0.22913 0.86257,0.22913 1.00455,1.03112 1.00456,1.03111 0.41958,1.3814 0.41959,1.38139 -0.0877,0.9125 -0.0877,0.91249 -0.52614,1.15035 c -0.63492,1.38816 -1.30833,2.14206 -2.34002,2.61972 l -0.77293,0.35785 -0.96617,-1.5e-4 -0.96616,-1.6e-4 z m -45.40503,-34.06114 c 7.44925,-3.96865 13.82903,-5.80052 22.29807,-6.40261 l 3.2618,-0.23188 2.70527,0.1168 c 5.82861,0.25164 12.65487,1.53589 16.58147,3.11952 l 1.1228,0.45284 2.02554,-1.22826 c 2.62368,-1.59095 4.06179,-2.74814 6.21706,-5.00258 l 1.7541,-1.834825 1.4545,-2.184082 C 241.30609,75.541008 224.3454,44.779188 195.10766,40.565607 l -2.3188,-0.334172 -3.86467,0.01274 -3.86467,0.01274 -2.60199,0.412299 c -14.38481,2.279341 -26.53691,11.020354 -32.67,23.499551 l -1.32954,2.705266 -0.67348,2.02895 c -0.83781,2.524057 -1.38619,5.204132 -1.68037,8.212417 l -0.22675,2.3188 0.11814,2.512033 c 0.51971,11.051287 5.79206,20.789249 14.33829,26.482679 2.13995,1.42561 5.90222,3.25773 6.89517,3.35775 0.0771,0.008 0.94664,-0.41554 1.93233,-0.94068 z m 21.53044,-23.11281 -2.29033,-0.668193 -0.60817,-0.417112 c -1.477,-1.012998 -2.13242,-1.96189 -2.36658,-3.426192 l -0.12616,-0.788973 0.77463,-0.774626 0.77462,-0.774626 h 0.67468 0.67467 l 1.1528,1.028629 1.15281,1.02863 1.23868,0.356008 1.23868,0.356009 1.64248,0.0029 1.64249,0.0029 1.1594,-0.446844 1.1594,-0.446844 1.28197,-1.327192 1.28197,-1.327191 h 0.69195 0.69194 l 0.67706,0.594461 0.67705,0.59446 0.12567,0.669892 0.12568,0.669891 -0.33605,0.879928 -0.33605,0.879928 -1.09115,1.11513 -1.09116,1.115129 -1.20318,0.607365 c -0.66175,0.334051 -1.70031,0.736849 -2.3079,0.895107 l -1.10471,0.287742 -1.84343,-0.0091 -1.84343,-0.0091 z m -15.39177,-4.711468 c -1.51452,-0.460697 -2.44015,-1.325625 -3.2189,-3.007804 l -0.53673,-1.1594 -0.005,-1.642483 -0.005,-1.642484 0.26398,-0.749882 0.26397,-0.749882 0.68813,-0.76167 c 0.37847,-0.418918 1.01667,-0.929282 1.41823,-1.134142 l 0.73011,-0.372474 h 1.07818 1.07818 l 0.73522,0.375083 c 0.91408,0.466327 1.88431,1.553609 2.41543,2.706833 l 0.40499,0.879368 0.002,1.652574 0.002,1.652575 -0.64319,1.267194 -0.6432,1.267194 -0.65814,0.677588 -0.65814,0.677587 -0.72761,0.120259 c -0.89447,0.147836 -1.35766,0.13476 -1.98489,-0.05603 z m 35.88664,-2.81358 c -1.66482,-0.422715 -3.01557,-1.614062 -3.73742,-3.296359 l -0.32719,-0.762532 0.004,-1.545866 0.004,-1.545867 0.43851,-1.015882 0.43851,-1.015881 0.68617,-0.602466 c 0.37739,-0.331357 0.9723,-0.722021 1.32202,-0.868144 l 0.63586,-0.265677 h 1.0752 1.07519 l 0.63586,0.265677 c 0.34972,0.146123 0.94268,0.53508 1.3177,0.864349 l 0.68185,0.598671 0.55922,1.21291 0.55922,1.21291 8.9e-4,1.656146 9e-4,1.656145 -0.58266,1.139302 -0.58266,1.139301 -0.91062,0.562991 -0.91062,0.562991 -0.74689,0.136579 -0.74689,0.136579 z"
       id="path683"
       sodipodi:nodetypes="cscssscccsscccccsscsscccsscccssssscsscsscccsscsscsscccsscsscsscsscssccscccsscssscsscccsscsscssssscccssccccccccccsssccccccccccscccccscccccccccccccccccssccscsscccscsscccsscccsscccsscsscccsscccscccccccccccccccsscccccccccssccccccccsscccccccccccccccccccccccccccccscccccccccccccccsscccssccccccccccsscccsscccsscccccsscsscccsscccsscsscsscccscccsscccccccsscsscsscccccsscsscssscccccccccccccsscccccccssccccccccccccsscccccccccssccccsscsscsscsscccsscsscsscsccsscccccccccccccccccccccccccssccccsscccccsscccsscccccccssscscccccsscccsscccccccccccc"
       inkscape:label="path683" /><path
       style="fill:#9bca6a;fill-opacity:1;stroke:#000000;stroke-width:11.1004;stroke-linecap:round;stroke-linejoin:round;paint-order:stroke fill markers"
       d="m 650.88768,661.97303 c -18.12216,-8.68482 -37.36635,-25.02192 -48.9883,-41.58798 -15.23231,-21.71232 -22.87146,-47.84592 -21.42944,-73.31031 1.60254,-28.29903 8.77569,-49.05921 24.92895,-72.14824 16.39742,-23.43799 45.64689,-44.2978 76.52258,-54.5735 19.66896,-6.546 28.41945,-8.00026 51.05271,-8.48453 18.24866,-0.39045 21.41999,-0.20109 34.63183,2.06783 19.31108,3.31638 31.89147,7.31345 46.70086,14.83791 18.02251,9.157 26.69928,15.24121 38.25288,26.82319 18.73124,18.77727 29.10676,37.38704 35.74013,64.10427 2.52566,10.17264 2.62155,11.47842 2.19462,29.88732 -0.48601,20.95669 -1.54871,26.82641 -7.60081,41.982 -8.73819,21.88208 -27.16168,44.04987 -44.19043,53.17146 l -5.49093,2.94126 -7.24793,-2.40826 c -3.98636,-1.32454 -14.69417,-3.74125 -23.79514,-5.37045 -15.00469,-2.68607 -18.49406,-2.9622 -37.43188,-2.9622 -17.03553,0 -22.83533,0.37301 -31.46849,2.02389 -25.81828,4.93712 -43.22255,10.59541 -62.84296,20.43081 -6.54221,3.27951 -12.02439,5.96275 -12.18262,5.96275 -0.15823,0 -3.46827,-1.52426 -7.35563,-3.38722 z m 115.56766,-84.65849 c 13.79282,-3.30095 23.35373,-11.71952 23.35373,-20.56342 0,-5.17946 -2.82284,-8.98031 -6.66955,-8.98031 -3.00267,0 -8.32325,3.21699 -10.29328,6.22365 -2.22067,3.38916 -14.16605,6.92704 -20.76855,6.15104 -7.6348,-0.89732 -13.30403,-3.23936 -17.3132,-7.15236 -4.19658,-4.0959 -7.21224,-3.97457 -11.20925,0.45102 -1.89829,2.10183 -2.3088,3.43016 -1.96773,6.36726 0.8927,7.68733 8.72831,13.76313 22.35247,17.33227 9.07309,2.37689 13.16772,2.40797 22.51536,0.17085 z m -71.0426,-21.25948 c 6.05554,-3.54878 9.14399,-9.92715 9.14399,-18.88448 0,-8.47967 -1.31737,-12.45938 -5.62193,-16.98365 -5.90212,-6.20334 -16.30616,-7.44957 -21.59927,-2.58722 -6.21468,5.70891 -8.47201,21.35797 -4.35211,30.1711 2.75856,5.90101 4.20422,7.54232 8.1526,9.25596 4.94566,2.14649 9.48288,1.83767 14.27672,-0.97171 z m 129.18321,-8.5728 c 4.87118,-2.75412 9.8385,-10.71411 10.53342,-16.87951 1.11077,-9.85465 -5.57127,-21.35821 -13.84641,-23.83751 -7.74737,-2.32117 -17.28388,3.30096 -19.69039,11.60821 -1.34232,4.63369 -1.26524,14.63001 0.14431,18.71708 3.74222,10.85068 13.88891,15.46338 22.85907,10.39173 z"
       id="path1"
       transform="scale(0.26458333)" /><path
       style="fill:#fbafae;fill-opacity:1;stroke:#000000;stroke-width:11.1004;stroke-linecap:round;stroke-linejoin:round;paint-order:stroke fill markers"
       d="m 733.95409,912.2412 c -29.06994,-1.62267 -51.59621,-8.99426 -75.17084,-24.59924 -24.67354,-16.33241 -42.41812,-40.73426 -49.27876,-67.76682 -2.71987,-10.71693 -2.9385,-12.87186 -2.93271,-28.9074 0.006,-16.06561 0.21818,-18.13317 2.91706,-28.39646 14.18779,-53.95332 57.34086,-90.77934 122.57964,-104.60714 18.1917,-3.85586 41.34243,-4.42241 58.42531,-1.4298 37.51342,6.57167 64.05513,19.33994 85.78485,41.26805 16.74611,16.89899 30.30904,43.822 34.684,68.84922 2.23583,12.79022 1.1989,34.70855 -2.19997,46.50196 -5.6989,19.77409 -16.89102,39.87605 -29.29165,52.61023 -16.34551,16.78514 -43.246,33.0333 -63.28839,38.2268 -8.56765,2.2201 -9.48463,2.02331 -10.64461,-2.28456 -1.7957,-6.66871 -6.40329,-12.38287 -12.68435,-15.73064 -5.14956,-2.74468 -6.64796,-3.0737 -13.9608,-3.0655 -7.2341,0.008 -8.76504,0.3397 -13.09164,2.83543 -2.69476,1.55442 -5.82463,3.86532 -6.95526,5.13533 -3.11034,3.49377 -5.29364,10.06924 -5.29364,15.94289 0,5.40864 -0.93375,6.65212 -4.73473,6.30525 -0.89908,-0.082 -7.58767,-0.48147 -14.86351,-0.8876 z M 794.022,817.84479 c 2.48842,-0.74891 7.45238,-3.50491 11.031,-6.12445 10.10777,-7.39884 12.93137,-15.0405 7.48541,-20.25807 -4.25681,-4.07828 -8.62402,-3.63412 -13.46628,1.36957 -5.74531,5.93685 -9.93605,7.75626 -17.86537,7.75626 -9.1382,0 -15.67108,-2.09383 -19.78911,-6.34257 -4.4369,-4.57772 -8.58117,-4.72789 -12.18782,-0.44162 -2.82141,3.35306 -3.05265,4.94852 -1.42365,9.82269 2.1582,6.45754 8.62453,11.61422 17.58483,14.02327 6.87438,1.84824 22.77765,1.95651 28.63099,0.19492 z m -69.05708,-24.44007 c 6.64076,-6.48452 8.24851,-15.03014 4.88645,-25.97269 -1.2097,-3.93725 -5.94119,-9.52958 -9.71285,-11.47998 -5.48605,-2.83695 -13.56324,-1.08228 -17.70519,3.84623 -2.74731,3.26903 -5.7159,12.01512 -5.7159,16.84026 0,2.75635 1.06079,6.73386 2.84582,10.67068 3.6477,8.04482 7.60261,10.52166 16.03565,10.04261 4.99018,-0.28347 6.08786,-0.74606 9.36602,-3.94711 z m 125.10874,-6.3133 c 3.87948,-2.11559 5.47778,-3.79395 7.67683,-8.06138 2.47019,-4.7936 2.72104,-6.11183 2.26866,-11.92223 -0.53063,-6.81571 -2.88902,-11.82268 -7.62344,-16.18497 -5.1732,-4.76657 -14.07609,-5.68879 -19.51759,-2.02176 -5.21037,3.51127 -7.12497,7.76407 -7.5705,16.81595 -0.49884,10.13507 1.70246,15.61922 8.28771,20.64744 5.59652,4.27326 9.64753,4.45198 16.47833,0.72695 z"
       id="path2"
       transform="scale(0.26458333)" /><path
       style="fill:#f9bc54;fill-opacity:1;stroke:#000000;stroke-width:11.1004;stroke-linecap:round;stroke-linejoin:round;paint-order:stroke fill markers"
       d="m 790.6336,1020.5548 c -6.75833,-3.6708 -8.86422,-11.5118 -13.02103,-48.4821 -6.42337,-57.12896 -6.91342,-63.08149 -5.47844,-66.54582 3.00464,-7.25386 14.23993,-7.07913 16.07944,0.25007 0.29732,1.18462 3.01635,21.76706 6.0423,45.73877 4.7984,38.01328 5.41755,44.83367 4.84332,53.35348 -0.66598,9.8813 -2.69402,17.2116 -4.74193,17.1398 -0.61517,-0.022 -2.29082,-0.676 -3.72366,-1.4542 z"
       id="path3"
       transform="scale(0.26458333)" /><path
       style="fill:#fef8ef;fill-opacity:1;stroke:#000000;stroke-width:11.1004;stroke-linecap:round;stroke-linejoin:round;paint-order:stroke fill markers"
       d="m 626.60655,420.10951 c -45.74188,-19.34267 -73.99474,-63.81813 -74.21372,-116.82675 -0.10575,-25.60108 6.55503,-48.94111 20.54116,-71.97816 19.77607,-32.57388 51.48371,-57.62645 88.68919,-70.07437 20.79867,-6.95867 26.95951,-7.86771 53.22262,-7.85309 22.35465,0.0124 24.09951,0.15001 35.27684,2.78135 63.00413,14.83227 110.82117,61.34426 123.54864,120.17669 2.40998,11.14006 2.93188,33.8067 1.02966,44.71896 -3.07267,17.62663 -10.00358,34.71329 -20.21175,49.82761 -6.40744,9.48693 -23.21606,25.33895 -33.16493,31.27749 l -8.04973,4.80492 -9.52792,-3.11938 c -25.48195,-8.34261 -59.48269,-11.84666 -86.94098,-8.95999 -28.56334,3.00284 -49.15833,9.11646 -75.87472,22.52337 l -9.47198,4.75326 z m 129.39556,-89.86092 c 9.73731,-4.48116 17.05719,-14.0549 15.56659,-20.35967 -1.03501,-4.37774 -4.17015,-7.09611 -8.18404,-7.09611 -2.92773,0 -4.3053,0.78568 -7.91346,4.51339 -5.85408,6.04804 -11.08751,8.22546 -19.76982,8.22546 -9.12972,0 -14.0649,-1.55422 -19.27869,-6.07139 -5.56728,-4.82344 -10.17668,-5.10825 -14.22843,-0.87912 l -2.72914,2.8486 1.57278,5.41019 c 2.99484,10.3019 14.08964,16.11699 32.91619,17.25228 10.38481,0.62623 13.52468,0.0788 22.04802,-3.84363 z m -81.4287,-17.75622 c 1.43995,-1.13266 3.96806,-4.73367 5.61803,-8.00224 2.71832,-5.38496 2.96545,-6.64049 2.63256,-13.37423 -0.30727,-6.21532 -0.83159,-8.12222 -3.20415,-11.65318 -5.1635,-7.68455 -14.38775,-11.04432 -20.92267,-7.62075 -3.61159,1.89208 -8.67323,7.33384 -9.93534,10.68146 -0.572,1.51719 -1.04001,5.64459 -1.04001,9.17199 0,8.43845 4.18979,16.8318 10.20085,20.43521 5.28032,3.16537 12.8767,3.33039 16.65073,0.36174 z m 136.16356,-11.04769 c 11.65104,-6.38208 11.34342,-28.2853 -0.51793,-36.87762 -3.45668,-2.50401 -4.9298,-2.93056 -10.12089,-2.93056 -5.17678,0 -6.66749,0.42892 -10.07858,2.89991 -5.71816,4.14221 -8.30676,10.3601 -7.85208,18.8609 0.28753,5.37553 0.88139,7.32134 3.26162,10.6867 3.50032,4.94902 6.62862,7.38231 11.78596,9.1675 4.52001,1.56459 8.28572,1.06141 13.5219,-1.80683 z"
       id="path4"
       transform="scale(0.26458333)" /></g></svg>
